IKResults
version=1
nRows=5
nColumns=67
inDegrees=yes

Units are S.I. units (second, meters, Newtons, ...)
Angles are in degrees.

endheader
time	pelvis_tilt	pelvis_list	pelvis_rotation	pelvis_tx	pelvis_ty	pelvis_tz	hip_flexion_r	hip_adduction_r	hip_rotation_r	knee_angle_r	knee_rot_r	knee_adduc_r	ankle_angle_r	ankle_rot_r	ankle_add_r	subtalar_angle_r	mtp_angle_r	mtp_rot_r	mtp_add_r	hip_flexion_l	hip_adduction_l	hip_rotation_l	knee_angle_l	knee_rot_l	knee_adduc_l	ankle_angle_l	ankle_rot_l	ankle_add_l	subtalar_angle_l	mtp_angle_l	mtp_rot_l	mtp_add_l	lumbar_extension	lumbar_bending	lumbar_rotation	neck_flexion	neck_lateral_bending	neck_rotation	arm_flex_r	arm_add_r	arm_rot_r	elbow_flex_r	elbow_rot_r	elbow_add_r	pro_sup_r	wrist_flex_r	wrist_adduc_r	wrist_rot_r	wrist_dev_r	hand_finger_flex_r	hand_finger_adduc_r	hand_finger_rot_r	arm_flex_l	arm_add_l	arm_rot_l	elbow_flex_l	elbow_rot_l	elbow_add_l	pro_sup_l	wrist_flex_l	wrist_adduc_l	wrist_rot_l	wrist_dev_l	hand_finger_flex_l	hand_finger_adduc_l	hand_finger_rot_l
      1.50000000	     19.90528248	      6.26367445	     -0.08476547	     -0.45823661	      0.73902726	      0.76332340	      8.39084455	     -6.98006556	     -1.66950419	    -10.70750117	     -5.00000000	      1.40573617	      4.45715545	     -4.99418123	      5.00000000	     -2.87552793	     24.48206283	     -2.00000000	      1.02792165	    -40.47333324	      6.96026898	      4.07103692	     -8.47685128	      5.00000000	      1.35175426	     13.11735891	      0.83914305	      3.32382883	     12.13177916	     21.07452188	     -0.37169076	      1.11501440	    -39.38399043	     -5.46169515	    -14.31485670	      0.00000000	      0.00000000	      0.00000000	      0.00000000	      0.00000000	      0.00000000	      0.00000000	      0.00000000	      0.00000000	     -0.00042092	      0.00000000	      0.00000000	      0.00000000	      0.00000000	      0.00000000	      0.00000000	      0.00000000	      0.00000000	      0.00000000	      0.00000000	      0.00000000	      0.00000000	      0.00000000	      0.00000000	      0.00000000	      0.00000000	      0.00000000	      0.00000000	      0.00000000	      0.00000000	      0.00000000
      1.50500000	     19.85337015	      5.94142558	     -0.13201752	     -0.45034293	      0.73789782	      0.76391021	      8.85290609	     -6.52418956	     -2.00404363	    -12.29342753	     -5.00000000	      1.42198379	      4.54416081	     -4.95533179	      5.00000000	     -2.47816309	     24.41702211	     -2.00000000	      1.00143945	    -40.95777186	      6.57935234	      3.80615214	     -8.61855766	      5.00000000	      1.35145146	     12.66473714	      1.00477237	      3.03540771	     12.50796208	     21.20108943	     -0.36723999	      1.05650967	    -39.04224074	     -5.10898731	    -14.31969307	      0.00000000	      0.00000000	      0.00000000	      0.00000000	      0.00000000	      0.00000000	      0.00000000	      0.00000000	      0.00000000	     -0.00042092	      0.00000000	      0.00000000	      0.00000000	      0.00000000	      0.00000000	      0.00000000	      0.00000000	      0.00000000	      0.00000000	      0.00000000	      0.00000000	      0.00000000	      0.00000000	      0.00000000	      0.00000000	      0.00000000	      0.00000000	      0.00000000	      0.00000000	      0.00000000	      0.00000000
      1.51000000	     19.64313518	      5.50851155	     -0.38589446	     -0.44197927	      0.73660478	      0.76472801	      9.34086012	     -5.80271277	     -3.01021276	    -13.59497379	     -5.00000000	      0.99423589	      4.77312903	     -5.00000000	      5.00000000	     -0.06242806	     23.90184806	     -2.00000000	      0.78980432	    -41.29706765	      6.39134708	      2.53688252	     -8.74141138	      4.48655941	      1.83083337	     11.78287312	      1.92727773	      1.30489568	     14.49644990	     22.24894884	     -0.36976862	      0.58089566	    -38.41022141	     -4.76864951	    -14.01712937	      0.00000000	      0.00000000	      0.00000000	      0.00000000	      0.00000000	      0.00000000	      0.00000000	      0.00000000	      0.00000000	     -0.00042092	      0.00000000	      0.00000000	      0.00000000	      0.00000000	      0.00000000	      0.00000000	      0.00000000	      0.00000000	      0.00000000	      0.00000000	      0.00000000	      0.00000000	      0.00000000	      0.00000000	      0.00000000	      0.00000000	      0.00000000	      0.00000000	      0.00000000	      0.00000000	      0.00000000
      1.51500000	     19.66748632	      5.33005491	     -0.37942961	     -0.43405646	      0.73558057	      0.76530155	      9.44913583	     -5.48541424	     -2.95617566	    -14.73174178	     -5.00000000	      1.04041952	      4.59700878	     -5.00000000	      5.00000000	     -0.00080665	     23.86891682	     -2.00000000	      0.77739879	    -41.77743624	      6.12472960	      2.62793097	     -9.05609116	      4.39202291	      1.83878655	     11.48681147	      1.89147303	      1.35752065	     14.59654929	     22.31416358	     -0.37734070	      0.55294878	    -38.19655882	     -4.48478432	    -14.33969801	      0.00000000	      0.00000000	      0.00000000	      0.00000000	      0.00000000	      0.00000000	      0.00000000	      0.00000000	      0.00000000	     -0.00042092	      0.00000000	      0.00000000	      0.00000000	      0.00000000	      0.00000000	      0.00000000	      0.00000000	      0.00000000	      0.00000000	      0.00000000	      0.00000000	      0.00000000	      0.00000000	      0.00000000	      0.00000000	      0.00000000	      0.00000000	      0.00000000	      0.00000000	      0.00000000	      0.00000000
      1.52000000	     19.53936555	      5.07650090	     -0.33174662	     -0.42570830	      0.73449591	      0.76593524	      9.55422423	     -4.97652779	     -2.86585508	    -15.62870718	     -5.00000000	      0.89647709	      4.41565226	     -5.00000000	      5.00000000	      0.09372423	     23.74778182	     -2.00000000	      0.73239026	    -42.11506504	      5.69330633	      2.48045800	     -9.33249210	      4.38594427	      1.71137393	     10.70648708	      2.06335365	      1.41813823	     14.81248140	     22.55618939	     -0.39345372	      0.44674546	    -37.69736223	     -4.11347642	    -14.70100915	      0.00000000	      0.00000000	      0.00000000	      0.00000000	      0.00000000	      0.00000000	      0.00000000	      0.00000000	      0.00000000	     -0.00042092	      0.00000000	      0.00000000	      0.00000000	      0.00000000	      0.00000000	      0.00000000	      0.00000000	      0.00000000	      0.00000000	      0.00000000	      0.00000000	      0.00000000	      0.00000000	      0.00000000	      0.00000000	      0.00000000	      0.00000000	      0.00000000	      0.00000000	      0.00000000	      0.00000000
